<svg xmlns="http://www.w3.org/2000/svg" viewBox="0 0 927.69 688.67"><defs><style>.cls-1{fill:#c92037;stroke:#231f20;stroke-miterlimit:10;stroke-width:7px;}.cls-2{fill:#fff;}</style></defs><g id="Layer_2" data-name="Layer 2"><rect class="cls-1" x="3.5" y="146.53" width="593.89" height="384.6"/><polyline class="cls-1" points="580.88 2.47 922.74 345.04 580.88 686.19"/></g><g id="Layer_1" data-name="Layer 1"><path class="cls-2" d="M719.08,325.53H666.31v259.6H592.94a38.29,38.29,0,0,1-9.31.38,39.89,39.89,0,0,1-5.37-.82c-2.78-.62-19.42-4.34-23.7-16.55-3-8.51,1.48-17,4.13-22A41,41,0,0,1,569,533.35c5.51-4.73,12.94-9.66,24-18.44,3.84-3.06,13.41-10.79,22.36-19.23.28-.25.56-.52.83-.78,12.5-11.81,24.28-23.07,31.37-36.78,10.72-20.75,9.24-44.25,6-57.24-1.52-6.14-3.42-9.93-4.6-9.95a76.87,76.87,0,0,0-23.68-37.18c-15.79-13.91-37.42-22.49-61.29-22.49-32.13,0-60.22,15.55-75.44,38.73l0,0-89.19,135.1-51-129.81h0l-4-10.28v0A72.22,72.22,0,0,0,336,351.49c-12.55-15.87-31.48-26-52.65-26a66.3,66.3,0,0,0-45.28,18,.55.55,0,0,0-.1.11,65.86,65.86,0,0,0-85.58-4V321.9H124.56v70c-.14,1.87-.21,3.75-.21,5.66,0,2.55.13,5.07.37,7.55V613.31h48.6V409.87q0-.83,0-1.62c.51-18.79,9.91-33.75,21.43-33.75,9.23,0,17.1,9.58,20.13,23.06h0a55.6,55.6,0,0,1,1.34,12.3V613.31h46.28V414.12c0-2.18,0-5.37.23-9.23.85-15.8,1.36-25.19,7.15-29.07,1.63-1.08,5.57-3,13.49-.68l4.85,2.7a47.13,47.13,0,0,1,5.14,4.69,49.74,49.74,0,0,1,11.32,19.78h0l20.39,52,40.2,102.4L386.61,611l4.7-1.84L422,562.65l70.75-107.16,3.08-4.68,4.55-6.88c.34-.54.68-1.06,1-1.59l.71-1.06c3.69-5.4,35.55-50.78,69-44a38.15,38.15,0,0,1,9.53,3.35c6.19,3.11,11.68,7.81,14.69,13.22a19.47,19.47,0,0,1,2.17,5.78c.62,3.22.1,5.59-1,10.33a42.06,42.06,0,0,1-2.55,11.58v0c-3.94,10.36-10.17,13.5-24.59,25.92-3.25,2.8-6.88,5.92-10.73,9.36-20.17,18-46.26,44.77-53.67,77.84-4.16,18.58-.54,30.73.89,34.88a65.45,65.45,0,0,0,14.76,22.81c15,14.57,40.48,20,63.06,19v.13H710.54c2.18.09,4.38.13,6.58.13h2c86.65-1,156.57-69.13,156.57-153S805.73,326.54,719.08,325.53Zm0,259.59V377.62a103.75,103.75,0,0,1,0,207.5Z" transform="translate(-51.98 -137.03)"/></g></svg>